<svg width="136" height="201" viewBox="0 0 136 201" fill="none" xmlns="http://www.w3.org/2000/svg">
<path d="M135.428 188.821L131.052 153.819C130.392 148.536 126.756 144.101 121.706 142.417L104.835 136.794C102.518 136.021 99.9768 136.513 98.1902 138.035L93.2206 136.379C90.3979 135.438 88.4938 132.796 88.4938 129.821V118.673L103.383 112.469C111.111 109.249 116.145 101.698 116.145 93.3256V89.8691C121.872 89.8691 126.515 85.2266 126.515 79.4996C126.515 76.9163 125.568 74.5555 124.005 72.74C126.94 62.0602 135.186 28.2781 126.515 13.826L129.971 0C129.971 0 93.6781 0.864126 74.6674 6.91301L81.5804 0C81.5804 0 32.9733 0 22.8228 17.2795L22.8198 17.2825C22.8198 17.2825 5.5373 17.1386 5.5373 38.0215C5.5373 45.6647 9.80046 64.7498 11.6307 72.5931C9.99187 74.4267 8.9938 76.8463 8.9938 79.4996C8.9938 85.2266 13.6363 89.8691 19.3633 89.8691V93.3256C19.3633 101.698 24.3973 109.249 32.1256 112.469L47.0153 118.673V129.821C47.0153 132.797 45.1112 135.438 42.2886 136.379L37.319 138.036C35.5324 136.514 32.991 136.022 30.6743 136.794L13.8035 142.418C8.75228 144.102 5.1169 148.536 4.45671 153.82L0.0816419 188.822C-0.692183 195.011 4.13353 200.477 10.3708 200.477H10.468H125.041H125.138C131.375 200.477 136.201 195.011 135.428 188.821Z" fill="#FFD7A3"/>
<path d="M88.4934 118.673L47.0154 118.674V129.822C47.0154 132.31 45.6388 134.501 43.5515 135.723C72.5403 140.797 88.4934 118.673 88.4934 118.673Z" fill="#FDC88E"/>
<path d="M12.4503 76.0431C12.4503 76.0431 5.5373 47.7542 5.5373 38.0215C5.5373 17.1386 22.8198 17.2825 22.8198 17.2825L22.8228 17.2795C32.9733 0 81.5804 0 81.5804 0L74.6674 6.91301C93.6782 0.864126 129.971 0 129.971 0L126.515 13.826C136.884 31.1085 123.058 76.0431 123.058 76.0431H12.4503Z" fill="#734A3E"/>
<path d="M81.5804 0C81.5804 0 32.9733 0 22.8228 17.2795L22.8198 17.2825C22.8198 17.2825 5.5373 17.1386 5.5373 38.0215C5.5373 47.7542 12.4503 76.0431 12.4503 76.0431C12.4503 76.0431 84.3171 43.9265 129.971 0C129.971 0 93.6781 0.864126 74.6674 6.91301L81.5804 0Z" fill="#623F33"/>
<path d="M116.145 69.13V62.217C116.145 52.6723 108.408 44.9345 98.8629 44.9345H36.6458C27.1011 44.9345 19.3633 52.6723 19.3633 62.217V69.13C13.6363 69.13 8.9938 73.7726 8.9938 79.4995C8.9938 85.2265 13.6363 89.8691 19.3633 89.8691V93.3256C19.3633 101.698 24.3973 109.249 32.1256 112.469L54.4594 121.775C58.672 123.531 63.1905 124.434 67.7539 124.434C72.3174 124.434 76.8355 123.53 81.0481 121.775L103.383 112.469C111.111 109.249 116.145 101.698 116.145 93.3256V89.8691C121.872 89.8691 126.515 85.2265 126.515 79.4995C126.515 73.7726 121.872 69.13 116.145 69.13Z" fill="#FFE1B2"/>
<path d="M43.5588 82.9561C41.6578 82.9561 40.1023 81.4006 40.1023 79.4996V76.0431C40.1023 74.142 41.6578 72.5865 43.5588 72.5865C45.4599 72.5865 47.0153 74.142 47.0153 76.0431V79.4996C47.0153 81.4006 45.4599 82.9561 43.5588 82.9561Z" fill="#623F33"/>
<path d="M91.9499 82.9561C90.0488 82.9561 88.4934 81.4006 88.4934 79.4996V76.0431C88.4934 74.142 90.0488 72.5865 91.9499 72.5865C93.851 72.5865 95.4064 74.142 95.4064 76.0431V79.4996C95.4064 81.4006 93.851 82.9561 91.9499 82.9561Z" fill="#623F33"/>
<path d="M67.7544 107.246C61.6091 107.246 55.861 105.734 51.9841 103.096C50.4062 102.023 49.9957 99.8726 51.0711 98.2947C52.1426 96.7186 54.2947 96.3081 55.8726 97.3818C58.5899 99.2297 63.0319 100.334 67.7544 100.334C72.4768 100.334 76.9189 99.2297 79.6361 97.3818C81.2175 96.3051 83.3644 96.7169 84.4376 98.2947C85.5126 99.8726 85.1026 102.023 83.5247 103.096C79.6482 105.734 73.8996 107.246 67.7544 107.246Z" fill="#E4B07B"/>
<path d="M135.428 188.822L131.052 153.82C130.392 148.536 126.756 144.102 121.706 142.418L104.835 136.794C101.897 135.815 98.5916 136.861 96.932 139.475C90.8045 149.13 80.0353 155.543 67.7544 155.543C55.4734 155.543 44.7042 149.129 38.5772 139.475C36.9176 136.861 33.6123 135.815 30.6743 136.794L13.8035 142.418C8.75228 144.102 5.1169 148.536 4.45671 153.82L0.0816423 188.822C-0.692182 195.011 4.13396 200.478 10.3712 200.478H125.138C131.375 200.478 136.201 195.011 135.428 188.822Z" fill="#00BEA4"/>
<path d="M7.33814 146.974C5.80345 148.917 4.77601 151.264 4.45671 153.819L0.0816423 188.821C-0.692182 195.011 4.13396 200.477 10.3712 200.477H29.7328V177.981C29.7328 174.655 28.5343 171.442 26.3571 168.928L7.33814 146.974Z" fill="#00AB9A"/>
<path d="M128.171 146.974C129.705 148.917 130.733 151.264 131.052 153.819L135.427 188.821C136.201 195.011 131.375 200.477 125.138 200.477H105.776V177.981C105.776 174.655 106.974 171.442 109.152 168.928L128.171 146.974Z" fill="#00AB9A"/>
<path d="M37.5082 105.304C34.7076 102.301 33.1898 98.3384 33.1898 94.232V55.0612C44.1914 54.2364 78.8778 51.2366 98.8633 44.9345H36.6458C35.4559 44.9345 34.3036 45.0732 33.1893 45.3152V45.2828C25.3012 46.8844 19.3633 53.8562 19.3633 62.217V69.13C13.6363 69.13 8.9938 73.7726 8.9938 79.4995C8.9938 85.2265 13.6363 89.8691 19.3633 89.8691V93.3256C19.3633 101.698 24.3973 109.249 32.1256 112.469L54.4589 121.775C55.552 122.231 56.6676 122.623 57.7975 122.963C47.9274 115.742 41.3575 109.43 37.5082 105.304Z" fill="#FFD7A3"/>
</svg>
