<svg width="552" height="327" viewBox="0 0 552 327" fill="none" xmlns="http://www.w3.org/2000/svg">
<g clip-path="url(#clip0_13_464)">
<path d="M552 0H0V327H552V0Z" fill="white"/>
<path d="M152.05 24.3783C223.786 20.2417 298.999 41.7747 287.942 73.0032C276.886 104.232 347.046 61.9179 375.048 73.1667C394.979 81.1782 387.007 105.572 396.653 115.399C418.765 137.929 441.37 109.562 469.52 126.582C497.653 143.619 485.957 302.851 474.507 302.835L40.5511 302.05L35.3509 302.214C35.3509 302.214 3.52687 256.466 32.3326 229.751C61.1383 203.035 41.3549 190.821 37.8608 180.504C33.8418 168.651 24.4586 147.952 65.3377 132.762C106.201 117.573 95.6526 84.5136 94.652 77.6629C93.6349 70.8286 80.3312 28.5148 152.05 24.3783Z" fill="#EAFCFC"/>
<path opacity="0.6" d="M406.036 48.4946H373.162V302.099H406.036V48.4946Z" fill="#9BC1F9"/>
<path opacity="0.6" d="M360.137 125.846H327.263V302.099H360.137V125.846Z" fill="#9BC1F9"/>
<path opacity="0.6" d="M452.607 103.431H419.733V302.1H452.607V103.431Z" fill="#9BC1F9"/>
<path opacity="0.6" d="M314.222 95.6313H281.348V302.099H314.222V95.6313Z" fill="#9BC1F9"/>
<path opacity="0.6" d="M268.323 156.846H235.449V302.099H268.323V156.846Z" fill="#9BC1F9"/>
<path opacity="0.3" d="M406.036 106.946H373.162V302.099H406.036V106.946Z" fill="#9BC1F9"/>
<path opacity="0.3" d="M360.137 166.476H327.263V302.099H360.137V166.476Z" fill="#9BC1F9"/>
<path opacity="0.3" d="M452.607 149.227H419.733V302.1H452.607V149.227Z" fill="#9BC1F9"/>
<path opacity="0.3" d="M314.222 143.21H281.348V302.099H314.222V143.21Z" fill="#9BC1F9"/>
<path opacity="0.3" d="M268.323 190.314H235.449V302.099H268.323V190.314Z" fill="#9BC1F9"/>
<path d="M468.585 50.4233L442.387 70.1741L452.394 70.8118L389.861 180.504L355.232 128.756L306.266 242.634L274.753 198.031L235.498 253.343L237.959 263.251L274.737 211.683L308.037 258.82L356.84 145.384L390.435 195.579L459.661 74.1472L466.091 81.0305L468.585 50.4233Z" fill="#5183BF"/>
<path d="M205.544 228.77C167.962 198.931 136.368 160.345 112.45 115.039C95.2261 128.838 77.9853 142.638 60.7446 156.421C88.402 208.806 124.918 253.425 168.372 287.924C180.774 268.206 193.159 248.488 205.544 228.77Z" fill="#3C8F7C"/>
<path d="M104.363 125.846C93.6513 134.561 82.9394 143.275 72.2439 151.973C74.7865 156.715 73.8679 163.108 70.0621 166.345C94.3731 209.182 124.836 246.395 160.301 276.61C163.205 272.277 168.668 271.427 172.605 274.598C180.413 262.352 188.221 250.106 196.03 237.86C192.421 234.933 191.896 228.966 194.799 224.633C163.648 198.113 136.893 165.43 115.551 127.808C111.762 131.045 106.709 130.212 104.363 125.846Z" fill="#96D9C9"/>
<path d="M147.621 223.783C155.643 213.466 155.577 198.228 147.998 189.121C140.403 180.03 127.444 179.605 118.471 188.794C109.514 197.966 108.661 214.251 117.191 224.486C125.705 234.721 139.616 234.083 147.621 223.783Z" fill="#50BFA5"/>
<path d="M147.096 194.483C146.095 195.595 145.078 196.723 144.078 197.835C146.489 202.25 145.981 206.795 143.372 209.771C140.748 212.763 137.811 213.041 133.317 210.392C130.069 208.561 128.494 208.021 127.509 209.084C126.673 209.983 126.394 211.634 128.166 213.874C129.134 215.084 130.101 215.902 130.954 216.474C132.086 217.242 132.447 218.959 131.758 220.284C131.086 221.559 129.642 221.984 128.543 221.216C127.641 220.578 126.673 219.711 125.607 218.501C124.737 219.466 123.868 220.414 122.982 221.379C122.063 220.235 121.161 219.09 120.259 217.929C121.21 216.899 122.162 215.885 123.113 214.855C120.817 210.425 121.26 206.01 123.933 203.214C126.886 200.124 130.298 201.072 134.219 203.525C136.925 205.209 138.5 205.487 139.632 204.228C140.813 202.904 140.436 200.909 138.943 199.012C137.926 197.704 136.729 196.723 135.564 195.987C134.416 195.268 134.104 193.502 134.875 192.178C134.908 192.129 134.924 192.08 134.957 192.031C135.662 190.837 137.008 190.428 138.025 191.082C139.255 191.884 140.567 193.028 141.732 194.369C142.683 193.339 143.618 192.309 144.57 191.279C145.406 192.358 146.243 193.421 147.096 194.483Z" fill="#3C8F7C"/>
<path d="M177.231 250.335C168.668 243.027 160.416 235.277 152.493 227.118C151.131 228.884 149.77 230.633 148.425 232.399C156.463 240.672 164.829 248.537 173.523 255.943C174.753 254.079 176 252.215 177.231 250.335Z" fill="#50BFA5"/>
<path d="M197.883 216.736C150.672 210.768 104.363 195.023 61.4008 170.334C53.2315 189.399 45.0622 208.479 36.9094 227.543C86.5812 256.09 140.108 274.304 194.701 281.204C195.767 259.704 196.817 238.22 197.883 216.736Z" fill="#3C8F7C"/>
<path d="M59.6947 182.728C54.6915 194.68 49.6882 206.631 44.6849 218.583C49.2125 221.134 51.5583 226.644 49.8522 231.009C91.9289 253.556 136.597 268.745 182.152 276.005C182.529 271.198 186.86 267.944 191.83 268.614C192.585 255.224 193.356 241.817 194.11 228.426C189.55 227.805 186.171 223.308 186.548 218.502C146.538 212.125 107.316 198.8 70.3739 179C68.6678 183.365 63.8614 185.082 59.6947 182.728Z" fill="#96D9C9"/>
<path d="M145.226 240.067C147.112 228.099 139.583 216.049 128.543 212.387C117.503 208.757 106.053 214.528 102.788 226.039C99.524 237.533 106.775 250.875 119.193 254.978C131.611 259.082 143.356 252.019 145.226 240.067Z" fill="#50BFA5"/>
<path d="M130.397 217.062C130.069 218.419 129.741 219.776 129.412 221.15C133.661 223.504 135.466 227.363 134.662 230.96C133.858 234.573 131.447 236.176 126.263 236.192C122.539 236.274 120.915 236.584 120.587 237.892C120.308 239.004 120.866 240.443 123.507 241.375C124.934 241.882 126.181 242.078 127.198 242.127C128.559 242.192 129.724 243.402 129.757 244.776C129.79 246.116 128.756 247.13 127.428 247.032C126.345 246.95 125.065 246.721 123.556 246.263C123.277 247.441 122.982 248.602 122.703 249.779C121.358 249.305 119.996 248.814 118.651 248.324C118.979 247.065 119.291 245.806 119.603 244.53C115.436 242.094 113.664 238.383 114.616 234.9C115.666 231.058 119.078 230.208 123.671 230.306C126.853 230.371 128.346 229.832 128.707 228.311C129.084 226.709 127.772 225.303 125.541 224.502C124.015 223.946 122.49 223.717 121.112 223.684C119.767 223.651 118.619 222.392 118.635 220.986C118.635 220.937 118.635 220.888 118.635 220.839C118.651 219.564 119.619 218.599 120.833 218.648C122.293 218.697 123.999 218.992 125.672 219.515C125.984 218.256 126.312 216.981 126.624 215.722C127.903 216.179 129.15 216.621 130.397 217.062Z" fill="#3C8F7C"/>
<path d="M176.197 121.775C175.049 121.399 173.917 120.958 172.834 120.435C171.604 119.846 170.013 119.159 168.996 118.996C166.88 118.669 163.238 118.881 161.22 121.056C158.71 123.754 154.265 121.546 155.151 135.689C156.168 151.696 165.124 149.946 165.338 149.668C165.551 149.39 173.326 139.433 173.326 139.433C173.326 139.433 176.049 145.336 176.049 145.123C176.066 144.911 189.944 126.37 176.197 121.775Z" fill="#0E2E35"/>
<path d="M185.646 227.298C148.49 241.932 107.513 248.619 64.8456 247C67.6836 265.1 70.5051 283.199 73.343 301.282C122.67 303.146 170.062 295.412 213.024 278.49C203.887 261.437 194.767 244.368 185.646 227.298Z" fill="#3C8F7C"/>
<path d="M69.3076 257.317C71.1613 268.615 73.0314 279.913 74.885 291.211C79.3634 291.342 83.5956 294.661 84.3666 298.732C125.41 299.026 164.944 292.584 201.476 279.619C199.54 275.744 201.197 271.46 205.118 269.956C199.507 259.279 193.881 248.586 188.271 237.91C184.662 239.3 180.118 237.19 178.198 233.315C146.112 244.695 111.401 250.352 75.3608 250.091C76.1317 254.145 73.4251 257.432 69.3076 257.317Z" fill="#96D9C9"/>
<path d="M158.021 266.832C153.887 256.794 142.847 250.532 133.12 252.199C123.408 253.883 117.716 263.023 120.636 273.274C123.556 283.509 134.973 290.883 145.915 288.987C156.857 287.106 162.155 276.855 158.021 266.832Z" fill="#50BFA5"/>
<path d="M136.63 255.077C137.024 256.27 137.401 257.447 137.795 258.641C141.978 258.739 145.062 260.995 146.128 264.086C147.211 267.208 146.194 269.448 142.421 271.557C139.747 273.143 138.714 274.043 139.074 275.187C139.386 276.168 140.452 277.051 142.815 276.691C144.094 276.495 145.078 276.152 145.849 275.776C146.866 275.269 148.277 275.727 148.933 276.789C149.573 277.803 149.294 279.013 148.277 279.487C147.441 279.863 146.407 280.207 145.095 280.468C145.423 281.498 145.751 282.512 146.095 283.542C144.898 283.722 143.684 283.902 142.47 284.065C142.126 282.953 141.781 281.858 141.42 280.746C137.254 280.566 134.268 278.408 133.349 275.318C132.332 271.917 134.432 269.857 137.828 268.059C140.174 266.816 141.01 265.786 140.584 264.462C140.124 263.072 138.517 262.516 136.515 262.794C135.154 262.99 133.94 263.432 132.923 263.971C131.922 264.494 130.511 263.987 129.888 262.892C129.872 262.859 129.839 262.81 129.822 262.778C129.248 261.78 129.511 260.636 130.413 260.178C131.496 259.622 132.874 259.148 134.334 258.87C133.989 257.758 133.628 256.663 133.284 255.551C134.399 255.404 135.515 255.24 136.63 255.077Z" fill="#3C8F7C"/>
<path d="M189.501 256.581C180.659 259.704 171.637 262.418 162.467 264.723C163.172 266.424 163.894 268.141 164.599 269.841C173.917 267.503 183.054 264.74 192.011 261.584C191.174 259.9 190.337 258.249 189.501 256.581Z" fill="#50BFA5"/>
<path d="M124.36 286.976V300.235C124.36 302.377 148.343 304.11 177.936 304.11C207.529 304.11 231.512 302.377 231.512 300.235V286.976H124.36Z" fill="#E59F39"/>
<path d="M163.123 303.963V286.976H124.36V300.235C124.36 302.018 140.731 303.505 163.123 303.963Z" fill="#EAB054"/>
<path d="M164.927 303.996C169.094 304.078 173.441 304.11 177.92 304.11C184.596 304.11 190.994 304.029 196.899 303.865V286.976H164.927V303.996Z" fill="#EAB054"/>
<path d="M199.048 303.8C218.143 303.211 231.512 301.838 231.512 300.235V286.976H199.048V303.8Z" fill="#EAB054"/>
<path d="M177.919 290.72C207.509 290.72 231.495 288.985 231.495 286.845C231.495 284.705 207.509 282.97 177.919 282.97C148.33 282.97 124.344 284.705 124.344 286.845C124.344 288.985 148.33 290.72 177.919 290.72Z" fill="#E59F39"/>
<path d="M222.047 286.845C222.047 288.333 202.296 289.542 177.936 289.542C153.576 289.542 133.825 288.333 133.825 286.845C133.825 285.357 153.576 284.147 177.936 284.147C202.296 284.147 222.047 285.357 222.047 286.845Z" fill="#F7CC7F"/>
<path d="M115.19 272.947V286.207C115.19 288.349 139.173 290.082 168.766 290.082C198.359 290.082 222.342 288.349 222.342 286.207V272.947H115.19Z" fill="#E59F39"/>
<path d="M153.953 289.935V272.947H115.19V286.207C115.19 287.989 131.561 289.477 153.953 289.935Z" fill="#EAB054"/>
<path d="M155.758 289.984C159.924 290.066 164.271 290.099 168.75 290.099C175.426 290.099 181.824 290.017 187.729 289.853V272.964H155.758V289.984Z" fill="#EAB054"/>
<path d="M189.878 289.771C208.973 289.183 222.342 287.809 222.342 286.207V272.947H189.878V289.771Z" fill="#EAB054"/>
<path d="M168.766 276.691C198.355 276.691 222.342 274.956 222.342 272.816C222.342 270.676 198.355 268.941 168.766 268.941C139.177 268.941 115.19 270.676 115.19 272.816C115.19 274.956 139.177 276.691 168.766 276.691Z" fill="#E59F39"/>
<path d="M212.877 272.816C212.877 274.304 193.126 275.514 168.766 275.514C144.406 275.514 124.655 274.304 124.655 272.816C124.655 271.329 144.406 270.119 168.766 270.119C193.126 270.119 212.877 271.329 212.877 272.816Z" fill="#F7CC7F"/>
<path d="M121.292 258.56V271.819C121.292 273.961 145.275 275.694 174.868 275.694C204.461 275.694 228.444 273.961 228.444 271.819V258.56H121.292Z" fill="#E59F39"/>
<path d="M160.072 275.547V258.56H121.292V271.819C121.292 273.585 137.68 275.073 160.072 275.547Z" fill="#EAB054"/>
<path d="M161.876 275.58C166.043 275.662 170.39 275.694 174.868 275.694C181.545 275.694 187.942 275.613 193.848 275.449V258.56H161.876V275.58Z" fill="#EAB054"/>
<path d="M195.98 275.384C215.075 274.795 228.444 273.422 228.444 271.819V258.56H195.98V275.384Z" fill="#EAB054"/>
<path d="M174.868 262.287C204.458 262.287 228.444 260.552 228.444 258.412C228.444 256.272 204.458 254.537 174.868 254.537C145.279 254.537 121.292 256.272 121.292 258.412C121.292 260.552 145.279 262.287 174.868 262.287Z" fill="#E59F39"/>
<path d="M218.979 258.412C218.979 259.9 199.229 261.11 174.868 261.11C150.508 261.11 130.758 259.9 130.758 258.412C130.758 256.924 150.508 255.714 174.868 255.714C199.229 255.731 218.979 256.924 218.979 258.412Z" fill="#F7CC7F"/>
<path d="M115.19 244.352V257.611C115.19 259.753 139.173 261.486 168.766 261.486C198.359 261.486 222.342 259.753 222.342 257.611V244.352H115.19Z" fill="#E59F39"/>
<path d="M153.953 261.339V244.352H115.19V257.611C115.19 259.377 131.561 260.881 153.953 261.339Z" fill="#EAB054"/>
<path d="M155.758 261.372C159.924 261.454 164.271 261.486 168.75 261.486C175.426 261.486 181.824 261.405 187.729 261.241V244.352H155.758V261.372Z" fill="#EAB054"/>
<path d="M189.878 261.176C208.973 260.587 222.342 259.214 222.342 257.611V244.352H189.878V261.176Z" fill="#EAB054"/>
<path d="M168.766 248.079C198.355 248.079 222.342 246.344 222.342 244.204C222.342 242.064 198.355 240.329 168.766 240.329C139.177 240.329 115.19 242.064 115.19 244.204C115.19 246.344 139.177 248.079 168.766 248.079Z" fill="#E59F39"/>
<path d="M212.877 244.204C212.877 245.692 193.126 246.902 168.766 246.902C144.406 246.902 124.655 245.692 124.655 244.204C124.655 242.716 144.406 241.506 168.766 241.506C193.126 241.523 212.877 242.733 212.877 244.204Z" fill="#F7CC7F"/>
<path d="M490.288 285.848V298.601C490.288 300.661 467.223 302.328 438.762 302.328C410.301 302.328 387.237 300.661 387.237 298.601V285.848H490.288Z" fill="#E59F39"/>
<path d="M453.001 302.181V285.848H490.288V298.601C490.288 300.301 474.54 301.74 453.001 302.181Z" fill="#EAB054"/>
<path d="M451.278 302.214C447.276 302.279 443.093 302.328 438.778 302.328C432.348 302.328 426.213 302.247 420.537 302.083V285.848H451.278V302.214Z" fill="#EAB054"/>
<path d="M418.454 302.034C400.097 301.462 387.237 300.138 387.237 298.601V285.848H418.454V302.034Z" fill="#EAB054"/>
<path d="M438.762 289.444C467.219 289.444 490.288 287.775 490.288 285.717C490.288 283.658 467.219 281.989 438.762 281.989C410.305 281.989 387.237 283.658 387.237 285.717C387.237 287.775 410.305 289.444 438.762 289.444Z" fill="#E59F39"/>
<path d="M396.341 285.716C396.341 287.139 415.337 288.299 438.762 288.299C462.187 288.299 481.183 287.139 481.183 285.716C481.183 284.294 462.187 283.133 438.762 283.133C415.337 283.133 396.341 284.277 396.341 285.716Z" fill="#F7CC7F"/>
<path d="M499.113 272.359V285.112C499.113 287.172 476.049 288.84 447.587 288.84C419.126 288.84 396.062 287.172 396.062 285.112V272.359H499.113Z" fill="#E59F39"/>
<path d="M461.826 288.693V272.359H499.113V285.112C499.113 286.813 483.349 288.252 461.826 288.693Z" fill="#EAB054"/>
<path d="M460.087 288.726C456.085 288.791 451.902 288.84 447.587 288.84C441.157 288.84 435.022 288.758 429.346 288.595V272.359H460.087V288.726Z" fill="#EAB054"/>
<path d="M427.279 288.546C408.923 287.974 396.062 286.649 396.062 285.112V272.359H427.279V288.546Z" fill="#EAB054"/>
<path d="M447.587 275.956C476.044 275.956 499.113 274.287 499.113 272.228C499.113 270.169 476.044 268.5 447.587 268.5C419.131 268.5 396.062 270.169 396.062 272.228C396.062 274.287 419.131 275.956 447.587 275.956Z" fill="#E59F39"/>
<path d="M447.587 274.811C471.016 274.811 490.009 273.655 490.009 272.228C490.009 270.801 471.016 269.645 447.587 269.645C424.159 269.645 405.166 270.801 405.166 272.228C405.166 273.655 424.159 274.811 447.587 274.811Z" fill="#F7CC7F"/>
<path d="M493.24 258.511V271.264C493.24 273.324 470.176 274.992 441.715 274.992C413.254 274.992 390.189 273.324 390.189 271.264V258.511H493.24Z" fill="#E59F39"/>
<path d="M455.954 274.844V258.511H493.24V271.264C493.24 272.964 477.476 274.403 455.954 274.844Z" fill="#EAB054"/>
<path d="M454.215 274.877C450.212 274.942 446.029 274.992 441.715 274.992C435.284 274.992 429.149 274.91 423.473 274.746V258.511H454.215V274.877Z" fill="#EAB054"/>
<path d="M421.406 274.697C403.05 274.125 390.189 272.801 390.189 271.264V258.511H421.406V274.697Z" fill="#EAB054"/>
<path d="M441.715 262.107C470.172 262.107 493.24 260.438 493.24 258.38C493.24 256.321 470.172 254.652 441.715 254.652C413.258 254.652 390.189 256.321 390.189 258.38C390.189 260.438 413.258 262.107 441.715 262.107Z" fill="#E59F39"/>
<path d="M441.715 260.962C465.143 260.962 484.136 259.806 484.136 258.379C484.136 256.952 465.143 255.796 441.715 255.796C418.286 255.796 399.294 256.952 399.294 258.379C399.294 259.806 418.286 260.962 441.715 260.962Z" fill="#F7CC7F"/>
<path d="M499.113 244.858V257.611C499.113 259.671 476.049 261.339 447.587 261.339C419.126 261.339 396.062 259.671 396.062 257.611V244.858H499.113Z" fill="#E59F39"/>
<path d="M461.826 261.192V244.858H499.113V257.611C499.113 259.312 483.349 260.734 461.826 261.192Z" fill="#EAB054"/>
<path d="M460.087 261.225C456.085 261.29 451.902 261.339 447.587 261.339C441.157 261.339 435.022 261.257 429.346 261.094V244.858H460.087V261.225Z" fill="#EAB054"/>
<path d="M427.279 261.028C408.923 260.456 396.062 259.132 396.062 257.595V244.842H427.279V261.028Z" fill="#EAB054"/>
<path d="M447.587 248.439C476.044 248.439 499.113 246.77 499.113 244.711C499.113 242.652 476.044 240.983 447.587 240.983C419.131 240.983 396.062 242.652 396.062 244.711C396.062 246.77 419.131 248.439 447.587 248.439Z" fill="#E59F39"/>
<path d="M447.587 247.294C471.016 247.294 490.009 246.137 490.009 244.71C490.009 243.284 471.016 242.127 447.587 242.127C424.159 242.127 405.166 243.284 405.166 244.71C405.166 246.137 424.159 247.294 447.587 247.294Z" fill="#F7CC7F"/>
<path d="M523.079 229.358L519.979 240.133C519.471 241.866 499.589 237.73 475.557 230.863C451.525 223.996 432.43 217.03 432.939 215.281L436.039 204.506L523.079 229.358Z" fill="#E59F39"/>
<path d="M487.614 234.165L491.583 220.366L523.079 229.358L519.979 240.133C519.569 241.572 505.904 238.988 487.614 234.165Z" fill="#EAB054"/>
<path d="M486.137 233.773C482.742 232.874 479.198 231.893 475.557 230.846C470.127 229.293 464.959 227.74 460.202 226.236L464.139 212.518L490.107 219.941L486.137 233.773Z" fill="#EAB054"/>
<path d="M458.463 225.712C443.093 220.807 432.561 216.589 432.922 215.281L436.023 204.506L462.384 212.027L458.463 225.712Z" fill="#EAB054"/>
<path d="M436.055 204.392C435.563 206.125 454.641 213.106 478.673 219.973C502.706 226.84 522.604 230.993 523.096 229.244C523.588 227.511 504.51 220.529 480.478 213.662C456.446 206.811 436.564 202.659 436.055 204.392Z" fill="#E59F39"/>
<path d="M443.749 206.598C443.404 207.808 459.169 213.367 478.969 219.024C498.768 224.682 515.091 228.279 515.435 227.069C515.78 225.859 500.015 220.3 480.215 214.643C460.416 208.986 444.093 205.389 443.749 206.598Z" fill="#F7CC7F"/>
<path d="M494.93 155.243L498.227 165.952C498.752 167.686 479.805 175.01 455.904 182.319C432.004 189.627 412.187 194.14 411.662 192.407L408.365 181.697L494.93 155.243Z" fill="#E59F39"/>
<path d="M467.83 178.542L463.614 164.824L494.946 155.243L498.244 165.952C498.67 167.391 485.793 172.64 467.83 178.542Z" fill="#EAB054"/>
<path d="M466.37 179.016C463.024 180.112 459.513 181.207 455.904 182.319C450.507 183.971 445.324 185.475 440.517 186.799L436.318 173.163L462.154 165.266L466.37 179.016Z" fill="#EAB054"/>
<path d="M438.762 187.289C423.195 191.524 412.056 193.715 411.646 192.423L408.349 181.714L434.579 173.703L438.762 187.289Z" fill="#EAB054"/>
<path d="M408.316 181.583C408.841 183.316 428.657 178.787 452.558 171.495C476.459 164.187 495.406 156.862 494.881 155.129C494.356 153.396 474.54 157.925 450.639 165.217C426.738 172.525 407.791 179.866 408.316 181.583Z" fill="#E59F39"/>
<path d="M415.96 179.262C416.338 180.455 432.594 176.564 452.279 170.547C471.964 164.531 487.63 158.677 487.253 157.484C486.875 156.29 470.619 160.181 450.934 166.198C431.249 172.199 415.599 178.052 415.96 179.262Z" fill="#F7CC7F"/>
<path d="M212.45 288.496C212.45 288.496 213.73 295.233 213.73 295.249C213.795 296.132 213.779 298.339 213.959 299.108C214.681 301.985 226.837 294.987 223.638 294.431C223.343 294.382 221.259 292.273 220.784 291.374C219.947 289.821 219.176 286.927 219.176 286.927L212.45 288.496Z" fill="#F7A491"/>
<path d="M223.031 294.006C223.031 294.006 219.898 294.775 218.29 294.938C216.699 295.102 214.648 292.633 213.5 293.091C212.237 293.598 211.548 301.446 211.548 301.446C211.548 301.446 231.594 302.361 236.335 301.053C238.221 300.53 229.265 296.377 223.031 294.006Z" fill="#F47458"/>
<path d="M240.403 288.186C240.403 288.186 241.682 294.922 241.682 294.938C241.748 295.821 241.732 298.029 241.912 298.797C242.634 301.675 254.56 295.135 251.361 294.579C251.066 294.53 249.212 291.963 248.72 291.063C247.883 289.51 247.112 286.616 247.112 286.616L240.403 288.186Z" fill="#F7A491"/>
<path d="M250.672 294.006C250.672 294.006 247.539 294.775 245.931 294.938C244.34 295.102 242.289 292.633 241.141 293.091C239.878 293.598 239.189 301.446 239.189 301.446C239.189 301.446 259.235 302.361 263.976 301.053C265.862 300.53 256.922 296.377 250.672 294.006Z" fill="#F47458"/>
<path d="M170.882 220.758L207.349 212.321C207.349 212.321 223.704 208.005 227.657 213.074C231.61 218.126 248.375 287.957 248.375 287.957C248.375 287.957 239.73 288.709 239.156 288.333L218.914 252.526C216.994 249.125 215.715 245.381 215.173 241.506L213.73 231.255L198.884 235.571C198.884 235.571 181.774 239.315 174.819 235.015C167.864 230.715 170.882 220.758 170.882 220.758Z" fill="#0E2E35"/>
<path d="M184.891 158.088C185.465 158.105 187.04 158.644 189.353 162.977C192.306 168.503 196.604 185.229 196.604 185.229L183.743 189.987L182.086 186.505L179.363 159.642C179.379 159.625 184.727 158.088 184.891 158.088Z" fill="#EAB054"/>
<path d="M167.897 155.685C171.571 155.685 180.675 156.748 184.891 158.089C184.891 158.089 187.992 184.576 182.103 204.702C180.79 209.215 183.202 223.374 183.202 223.374L145.095 222.867C145.095 222.867 149.606 188.614 147.916 183.071C146.194 177.561 146.161 158.268 146.161 158.268C146.161 158.268 146.424 158.236 154.724 156.797C158.595 156.143 163.976 155.685 167.897 155.685Z" fill="#F7CC7F"/>
<path d="M145.751 161.212C149.311 159.888 151.049 191.77 151.542 204.899C157.857 205.504 168.848 204.899 171.587 204.703C172.883 204.605 175.853 203.526 177.132 203.362C178.444 203.199 179.642 203.101 180.282 203.215C180.511 203.264 187.089 205.929 187.664 206.518C188.369 207.237 190.255 209.085 189.927 209.87C189.616 210.654 186.302 207.662 186.302 207.662L184.678 206.763C186.696 208.709 190.534 211.292 189.977 212.224C189.435 213.14 185.974 210.524 183.497 208.741C185.613 210.638 188.238 214.039 187.647 214.578C187.106 215.052 184.104 211.112 180.905 209.984C179.724 209.559 178.543 210.72 177.608 210.867C176.919 210.965 175.869 211.194 175.196 210.998L171.981 210.687C170.8 210.785 170.521 210.818 169.324 211.079C167.946 211.374 165.666 211.684 163.91 212.109C153.773 214.578 150.393 215.706 147.277 215.706C137.861 215.69 137.319 164.351 145.751 161.212Z" fill="#F7A491"/>
<path d="M138.976 191.148C138.303 177.708 138.402 161.129 145.997 158.301C148.983 157.189 154.265 163.893 153.313 191.41C149.278 191.753 143.323 192.031 138.976 191.148Z" fill="#EAB054"/>
<path d="M223.49 182.94L187.582 185.278C186.63 185.344 185.81 185.965 185.515 186.864L176.213 214.463L156.414 215.755C155.856 215.787 155.446 216.261 155.479 216.817C155.511 217.373 155.987 217.782 156.545 217.749L212.877 214.087C214.419 213.989 215.764 212.991 216.305 211.536L225.82 186.096C226.443 184.493 225.196 182.826 223.49 182.94Z" fill="#F47458"/>
<path d="M205.593 199.994C205.528 201.22 204.593 202.168 203.51 202.119C202.427 202.054 201.607 201.007 201.673 199.781C201.738 198.555 202.673 197.607 203.756 197.656C204.855 197.705 205.675 198.751 205.593 199.994Z" fill="white"/>
<path d="M145.111 222.017L184.858 215.183C184.858 215.183 202.05 212.567 205.987 217.635C209.94 222.687 221.407 288.284 221.407 288.284C221.407 288.284 212.762 289.036 212.188 288.66C211.745 288.365 201.279 266.505 196.571 256.663C195.078 253.54 194.028 250.221 193.454 246.804L191.945 237.877L186.942 239.593C178.149 242.602 168.782 243.648 159.563 242.52C155.708 242.046 152.099 241.212 149.868 239.839C142.913 235.506 145.111 222.017 145.111 222.017Z" fill="#184655"/>
<path d="M169.389 150.846L170.16 156.568C170.16 156.568 171.899 164.808 169.668 166.394C167.437 167.98 160.187 156.323 160.187 156.323L160.958 141.82L169.389 150.846Z" fill="#F7A491"/>
<path d="M160.712 146.545C162.549 151.483 166.945 154.524 170.046 155.701L169.389 150.845L160.958 141.836L160.712 146.545Z" fill="#F47458"/>
<path d="M168.93 126.075C173.654 125.323 177.887 129.084 177.772 133.792C177.723 135.836 177.559 138.387 177.132 141.134C176.099 147.739 171.571 153.543 168.569 153.036C165.567 152.513 158.021 146.823 159.35 137.422C160.17 131.601 163.976 126.86 168.93 126.075Z" fill="#F7A491"/>
<path d="M161.433 138.534C161.187 139.989 160.006 141.002 158.825 140.79C157.628 140.577 156.873 139.237 157.119 137.782C157.365 136.326 158.546 135.313 159.727 135.525C160.925 135.738 161.696 137.078 161.433 138.534Z" fill="#F7A491"/>
<path d="M159.744 135.525C159.744 135.525 163.369 136.425 164.714 134.103C166.059 131.781 170.866 126.795 176.985 128.855C183.103 130.931 171.604 123.819 171.112 123.819C170.62 123.819 164.747 123.786 164.747 123.786C164.747 123.786 160.219 127.481 160.055 127.89C159.891 128.299 158.595 132.73 158.595 132.73L159.744 135.525Z" fill="#0E2E35"/>
<path d="M337.405 301.749H427.661V269H337.405V301.749Z" fill="#50BFA5"/>
<path d="M337.405 277.988H427.661V273.769H337.405V277.988Z" fill="#96D9C9"/>
<path d="M337.405 286.219H427.661V282.001H337.405V286.219Z" fill="#96D9C9"/>
<path d="M337.405 294.45H427.661V290.232H337.405V294.45Z" fill="#96D9C9"/>
<path d="M337.405 301.747H427.661V297.529H337.405V301.747Z" fill="#96D9C9"/>
<path d="M371.012 301.749H389.778V269H371.012V301.749Z" fill="#F7CC7F"/>
<path d="M426.57 301.749H440.202V269H426.57V301.749Z" fill="#3C8F7C"/>
<path d="M527.968 301.282H29.2158V304.111H527.968V301.282Z" fill="#0E2E35"/>
<path opacity="0.8" d="M241.075 55.4592C240.157 51.4862 236.597 48.5268 232.348 48.5268C231.561 48.5268 230.806 48.6249 230.085 48.8211C227.985 44.3413 223.425 41.2347 218.142 41.2347C216.781 41.2347 215.452 41.4473 214.222 41.8233C211.368 37.1309 206.2 33.9917 200.295 33.9917C193.274 33.9917 187.286 38.4389 185.006 44.6683C183.398 43.769 181.545 43.2621 179.576 43.2621C173.408 43.2621 168.421 48.2325 168.421 54.3801C168.421 54.7398 168.438 55.0996 168.471 55.4592H241.075Z" fill="white"/>
<path opacity="0.8" d="M273.785 99.5715C273.096 96.5631 270.406 94.3231 267.175 94.3231C266.584 94.3231 266.01 94.4049 265.469 94.5357C263.877 91.1512 260.432 88.7968 256.43 88.7968C255.396 88.7968 254.396 88.9603 253.461 89.2383C251.312 85.6903 247.391 83.3032 242.929 83.3032C237.614 83.3032 233.087 86.6713 231.364 91.3801C230.15 90.7098 228.756 90.3174 227.263 90.3174C222.604 90.3174 218.815 94.0779 218.815 98.7376C218.815 99.0156 218.831 99.2772 218.848 99.5551H273.785V99.5715Z" fill="white"/>
<path opacity="0.8" d="M120.817 93.3757C121.424 90.7597 123.769 88.814 126.575 88.814C127.083 88.814 127.592 88.8794 128.067 89.0102C129.462 86.0509 132.464 84.0071 135.958 84.0071C136.86 84.0071 137.729 84.1379 138.55 84.3995C140.42 81.293 143.832 79.2329 147.736 79.2329C152.378 79.2329 156.332 82.1596 157.824 86.2798C158.891 85.6912 160.105 85.3478 161.401 85.3478C165.469 85.3478 168.766 88.6342 168.766 92.689C168.766 92.9342 168.75 93.1631 168.733 93.4084H120.817V93.3757Z" fill="white"/>
<path d="M222.227 130.718L222.867 138.468L227.394 133.4L242.011 121.464L229.543 125.372C229.543 125.372 223.408 128.348 223.129 128.74C222.834 129.149 222.227 130.718 222.227 130.718Z" fill="#50BFA5"/>
<path d="M215.6 127.383L242.011 121.464L222.227 130.718L215.6 127.383Z" fill="#96D9C9"/>
<path d="M232.381 136.474L224.245 132.419L242.011 121.464L232.381 136.474Z" fill="#96D9C9"/>
<path d="M219.143 135.035C220.357 134.577 221.259 134.479 221.276 134.479L221.21 133.923C221.177 133.923 220.226 134.038 218.946 134.512L219.143 135.035Z" fill="#3C8F7C"/>
<path d="M206.102 180.88C207.168 179.899 208.136 178.853 208.973 177.758L209.432 178.101C208.579 179.229 207.595 180.308 206.496 181.305L206.102 180.88ZM211.171 174.161C211.45 173.572 211.712 172.967 211.942 172.346C212.204 171.643 212.434 170.923 212.614 170.171L213.172 170.318C212.975 171.07 212.746 171.822 212.483 172.542C212.253 173.18 211.991 173.801 211.696 174.406L211.171 174.161ZM213.467 161.751L214.041 161.735C214.074 163.271 214.025 164.694 213.894 166.051L213.32 166.002C213.451 164.661 213.5 163.271 213.467 161.751ZM212.664 153.249L213.221 153.167C213.467 154.818 213.631 156.176 213.763 157.434L213.188 157.484C213.057 156.257 212.893 154.9 212.664 153.249ZM212.024 148.982C211.794 147.461 211.728 146.006 211.811 144.681L212.385 144.714C212.303 146.006 212.368 147.412 212.598 148.9V148.932L212.04 149.014L212.024 148.982ZM212.729 140.414C213.303 139.024 214.14 137.798 215.206 136.801L215.6 137.21C214.599 138.158 213.812 139.302 213.27 140.627L212.729 140.414Z" fill="#3C8F7C"/>
</g>
<defs>
<clipPath id="clip0_13_464">
<rect width="552" height="327" fill="white"/>
</clipPath>
</defs>
</svg>
