<svg width="584" height="584" viewBox="0 0 584 584" fill="none" xmlns="http://www.w3.org/2000/svg">
<path opacity="0.41" d="M227.293 380.418C222.504 380.418 217.832 380.184 213.043 379.834C160.834 375.512 100.448 350.634 74.4016 305.315C51.7424 265.603 42.7488 214.328 53.144 170.061C62.8384 128.48 92.9728 94.8416 135.254 81.9936C182.675 67.6272 235.118 85.0304 281.838 65.408C349.816 36.792 435.197 59.568 482.851 113.88C525.133 162.118 535.294 239.907 522.096 300.059C515.438 330.544 497.802 359.861 469.653 375.162C447.344 387.309 420.363 389.762 394.784 386.608C374.227 384.038 355.306 377.381 335.566 371.891C319.682 367.453 306.717 369.789 290.598 372.942C269.808 377.147 248.55 380.534 227.293 380.418Z" fill="#AFAFAF"/>
<path d="M238.973 351.334C235.118 351.334 231.264 351.218 227.41 350.867C185.245 347.363 136.306 327.274 115.282 290.482C96.944 258.362 89.7024 216.898 98.112 181.04C105.938 147.402 130.349 120.187 164.571 109.792C202.998 98.112 245.397 112.245 283.24 96.36C338.253 73.2336 407.398 91.5712 445.942 135.605C480.165 174.616 488.341 237.571 477.712 286.277C472.339 310.922 457.973 334.632 435.314 347.013C417.21 356.941 395.368 358.81 374.811 356.24C358.226 354.138 342.925 348.765 326.923 344.326C314.075 340.706 303.563 342.574 290.482 345.261C273.312 348.765 256.142 351.451 238.973 351.334Z" stroke="white" stroke-width="1.9456" stroke-miterlimit="10" stroke-dasharray="3.85 3.85"/>
<path opacity="0.87" d="M485.538 514.037C496.891 514.037 506.094 513.357 506.094 512.518C506.094 511.68 496.891 511 485.538 511C474.184 511 464.981 511.68 464.981 512.518C464.981 513.357 474.184 514.037 485.538 514.037Z" fill="#515159"/>
<path d="M488.224 453.418C488.224 453.418 470.587 441.504 481.917 424.101C493.246 406.698 490.443 400.741 486.472 395.835C496.05 406.814 493.947 419.195 488.224 427.138C482.384 434.963 481.566 445.709 488.224 453.418Z" fill="#AFAFAF"/>
<path d="M502.474 468.251H468.602L471.872 511.234H499.203L502.474 468.251Z" fill="#FEFEFE"/>
<path d="M506.094 466.032H464.981V471.055H506.094V466.032Z" fill="#8B8B8C"/>
<path d="M498.035 461.594H473.04C470.587 461.594 468.602 463.579 468.602 466.032H502.474C502.474 463.579 500.488 461.594 498.035 461.594Z" fill="#5A5A63"/>
<path d="M500.605 492.779L501.422 482.384H469.653L470.47 492.779H500.605Z" fill="#F52E2E"/>
<path d="M502.474 466.032C502.474 463.463 500.488 461.477 498.035 461.477H485.654C488.107 461.477 490.093 463.463 490.093 465.915H493.714V470.938H489.859L486.822 511H499.203L502.24 470.938H506.094V466.032H502.474Z" fill="#AFAFAF"/>
<path d="M320.382 199.027C320.382 199.027 327.507 176.718 317.112 170.294C310.454 166.907 306.95 171.112 306.95 171.112C306.95 171.112 303.797 155.344 282.422 160.6C268.523 163.987 264.202 156.862 264.202 156.862C264.202 156.862 264.085 176.602 273.662 182.558C280.554 188.515 277.867 204.517 277.867 204.517L320.382 199.027Z" fill="#2F2F35"/>
<path opacity="0.87" d="M383.454 490.326C383.454 490.326 421.998 491.494 432.744 501.422C444.074 511.817 455.87 528.169 407.282 527.819C358.576 527.469 315.477 514.153 274.714 518.358C233.95 522.563 200.429 529.921 190.618 528.286C180.806 526.651 250.419 493.363 250.419 493.363L379.6 498.152L383.454 490.326Z" fill="#515159"/>
<path d="M347.363 403.778L298.774 398.872L250.186 403.778C250.186 403.778 247.266 426.67 237.922 438.934C298.774 460.776 298.774 460.776 298.774 460.776C298.774 460.776 298.774 460.776 359.627 438.934C350.283 426.67 347.363 403.778 347.363 403.778Z" fill="#A87D1D"/>
<path d="M296.906 460.075C298.774 460.776 298.774 460.776 298.774 460.776C298.774 460.776 298.774 460.776 300.643 460.075C311.856 434.379 309.17 405.413 308.469 399.806L298.658 398.872L286.16 400.157C286.043 406.23 285.693 434.496 296.906 460.075Z" fill="#A87D1D"/>
<path d="M249.952 405.646C249.952 405.646 300.994 428.189 350.4 418.378C348.181 410.318 347.363 403.778 347.363 403.778L298.774 398.872L259.763 402.843L249.952 405.646Z" fill="#895436"/>
<path d="M273.546 182.442C280.437 188.398 277.75 204.4 277.75 204.4L286.744 203.232C295.971 194.939 306.483 184.544 304.965 180.573C302.278 173.682 294.57 166.79 280.437 165.973C266.187 165.155 264.085 156.746 264.085 156.746C264.085 156.746 264.085 176.485 273.546 182.442Z" fill="#515159"/>
<path d="M297.022 238.389L256.96 252.989L250.302 403.778C250.302 403.778 264.435 410.435 298.891 410.435C298.891 253.69 298.891 240.725 298.891 240.725L297.022 238.389Z" fill="white"/>
<path d="M300.643 238.389L340.822 252.989L347.48 403.778C347.48 403.778 333.347 410.435 298.891 410.435C298.891 253.69 298.891 240.725 298.891 240.725L300.643 238.389Z" fill="white"/>
<path d="M256.96 252.989L256.726 253.106C245.046 257.31 235.586 266.304 231.03 277.867L187.931 382.17L224.606 386.491L255.675 310.454L256.96 252.989Z" fill="#FF7E6E"/>
<path d="M340.706 252.989L340.939 253.106C352.619 257.31 362.08 266.304 366.635 277.867L409.734 382.17L373.059 386.491L341.99 310.454L340.706 252.989Z" fill="#FF7E6E"/>
<path d="M383.454 318.28L366.752 277.75C362.08 266.187 352.736 257.194 341.056 252.989L340.822 252.872L342.224 310.338L350.984 331.829C362.664 322.134 374.344 318.981 383.454 318.28Z" fill="#E8E8E8"/>
<path d="M214.328 318.28L231.03 277.75C235.702 266.187 245.046 257.194 256.726 252.989L256.96 252.872L255.558 310.338L246.798 331.829C235.118 322.134 223.322 318.981 214.328 318.28Z" fill="#E8E8E8"/>
<path d="M343.392 312.44C343.392 312.44 342.341 310.922 340.822 308.118L342.224 310.454C342.224 310.454 326.923 395.251 286.16 410.085C290.131 410.318 294.336 410.435 299.008 410.435C333.347 410.435 347.597 403.778 347.597 403.778L343.392 312.44Z" fill="#D3D3D3"/>
<path opacity="0.52" d="M238.038 301.344C248.434 272.261 249.018 272.494 271.56 267.238C294.219 261.866 289.781 241.075 289.781 241.075L268.64 248.784L265.37 249.952L256.96 252.989L256.726 253.106C245.046 257.31 235.586 266.304 231.03 277.867L189.683 377.848C207.203 364.883 229.162 325.989 238.038 301.344Z" fill="#FFF6E7"/>
<path opacity="0.28" d="M359.627 301.344C349.232 272.261 348.648 272.494 326.106 267.238C303.446 261.866 307.885 241.075 307.885 241.075L329.026 248.784L332.296 249.952L340.706 252.989L340.939 253.106C352.619 257.31 362.08 266.304 366.635 277.867L407.982 377.848C390.579 364.883 368.504 325.989 359.627 301.344Z" fill="#4C2A29"/>
<path d="M299.008 256.96H298.774C292.818 256.96 288.029 252.171 288.029 246.214V220.518H309.754V246.214C309.637 252.171 304.848 256.96 299.008 256.96Z" fill="#FF7E6E"/>
<path d="M309.52 240.374C309.637 240.374 309.637 240.374 309.637 240.374V220.635H299.475L287.912 224.84C288.029 224.723 292.35 240.374 309.52 240.374Z" fill="#4C2A29"/>
<path d="M324.12 205.101C324.12 208.955 320.966 212.109 317.112 212.109C313.258 212.109 310.104 208.955 310.104 205.101C310.104 201.246 313.258 198.093 317.112 198.093C320.966 198.21 324.12 201.246 324.12 205.101Z" fill="#C64F4F"/>
<path d="M318.514 211.992C319.565 207.904 320.149 202.765 320.382 199.027C319.448 198.443 318.28 198.21 317.112 198.21C313.258 198.21 310.104 201.363 310.104 205.218C310.104 209.072 313.258 212.226 317.112 212.226C317.579 212.109 318.046 211.992 318.514 211.992Z" fill="#803D3D"/>
<path d="M273.546 205.101C273.546 208.955 276.699 212.109 280.554 212.109C284.408 212.109 287.562 208.955 287.562 205.101C287.562 201.246 284.408 198.093 280.554 198.093C276.699 198.21 273.546 201.246 273.546 205.101Z" fill="#C64F4F"/>
<path d="M279.152 211.992C278.101 207.904 277.517 202.765 277.283 199.027C278.218 198.443 279.386 198.21 280.554 198.21C284.408 198.21 287.562 201.363 287.562 205.218C287.562 209.072 284.408 212.226 280.554 212.226C280.086 212.109 279.619 211.992 279.152 211.992Z" fill="#803D3D"/>
<path d="M311.155 180.806H298.891H286.627L280.554 194.122L281.605 207.203C282.189 214.211 286.627 226.358 293.051 229.278C294.92 230.213 296.906 230.797 298.891 230.797C300.877 230.797 302.862 230.213 304.731 229.278C311.155 226.358 315.594 214.211 316.178 207.203L317.229 194.122L311.155 180.806Z" fill="#FF7E6E"/>
<path d="M305.082 197.392C305.082 197.392 309.17 198.56 313.842 197.392" stroke="#2F2F35" stroke-width="1.3362" stroke-miterlimit="10" stroke-linecap="round"/>
<path d="M303.797 189.917C303.797 189.917 309.754 188.866 313.374 190.968" stroke="#2F2F35" stroke-width="2.6723" stroke-miterlimit="10" stroke-linecap="round"/>
<path d="M292.584 197.392C292.584 197.392 288.496 198.56 283.824 197.392" stroke="#2F2F35" stroke-width="1.3362" stroke-miterlimit="10" stroke-linecap="round"/>
<path d="M293.869 189.917C293.869 189.917 287.912 188.866 284.291 190.968" stroke="#2F2F35" stroke-width="2.6723" stroke-miterlimit="10" stroke-linecap="round"/>
<path opacity="0.52" d="M289.08 208.839C288.262 195.523 286.627 180.69 286.627 180.69L280.554 194.005L280.904 198.21C280.787 198.21 280.787 198.21 280.67 198.21C276.816 198.21 273.662 201.363 273.662 205.218C273.662 209.072 276.816 212.226 280.67 212.226C281.254 212.226 281.838 212.109 282.422 211.992C284.058 218.767 288.029 226.942 293.051 229.395C294.92 230.33 296.906 230.914 298.891 230.914C298.891 230.68 289.898 222.154 289.08 208.839Z" fill="#FFF6E7"/>
<path d="M340.706 462.762L201.947 420.714C183.493 415.107 164.104 425.97 159.315 444.541L159.082 445.242C154.059 464.397 166.557 483.786 186.062 487.173C237.338 496.166 330.31 511.35 379.25 513.219L399.923 527.002C403.077 529.104 407.165 528.754 409.851 526.184L409.968 526.067C413.238 523.03 413.355 517.891 410.318 514.738L407.048 511.35C407.048 511.35 404.128 497.334 389.995 491.378C375.862 485.421 374.461 470.704 371.19 462.762C368.037 454.702 346.779 450.731 340.706 462.762Z" fill="#8C4242"/>
<path d="M159.315 444.541C164.221 425.97 183.61 415.107 201.947 420.714L249.018 434.963C241.893 443.84 232.549 461.71 232.315 494.998C215.146 492.195 199.261 489.509 186.062 487.173C166.557 483.786 154.059 464.397 159.082 445.242L159.315 444.541Z" fill="#F52E2E"/>
<path opacity="0.67" d="M203.115 473.741C203.115 479.347 201.714 484.72 199.378 489.509C194.706 488.691 190.267 487.991 186.179 487.173C166.674 483.786 154.176 464.397 159.198 445.242L159.432 444.541C159.899 442.906 160.483 441.271 161.067 439.752C163.403 439.285 165.856 438.935 168.309 438.935C187.581 438.935 203.115 454.469 203.115 473.741Z" fill="#073044"/>
<path d="M347.363 482.034C347.363 482.034 345.378 493.714 326.106 489.509" stroke="#7B3C38" stroke-width="1.139" stroke-miterlimit="10"/>
<path opacity="0.28" d="M359.627 476.661C359.627 476.661 330.077 475.376 267.589 464.163C216.898 455.17 202.064 429.24 198.21 419.663C199.494 419.896 200.779 420.247 201.947 420.597L340.706 462.645C346.662 450.615 367.92 454.703 371.307 462.645C374.578 470.587 375.979 485.304 390.112 491.261C404.245 497.218 407.165 511.234 407.165 511.234C407.165 511.234 392.565 501.89 383.454 499.904C374.344 497.919 359.627 476.661 359.627 476.661Z" fill="#4C2A29"/>
<path d="M366.051 512.518C366.051 512.518 391.514 536.929 413.238 526.885C416.859 525.249 418.027 520.577 415.574 517.424C397.237 492.545 374.227 465.565 365.467 455.286C363.248 452.717 359.744 451.665 356.59 452.6L331.595 459.841L366.051 512.518Z" fill="#2F2F35"/>
<path d="M331.595 459.958L307.534 452.6L325.755 508.547L366.051 512.518L331.595 459.958Z" fill="#A5A5A5"/>
<path d="M256.96 462.762L395.718 420.714C414.173 415.107 433.562 425.97 438.35 444.541L438.584 445.242C443.606 464.397 431.109 483.786 411.603 487.173C360.328 496.166 267.355 511.35 218.416 513.219L197.742 527.002C194.589 529.104 190.501 528.754 187.814 526.184L187.698 526.067C184.427 523.03 184.31 517.891 187.347 514.738L190.618 511.35C190.618 511.35 193.538 497.334 207.67 491.378C221.803 485.421 223.205 470.704 226.475 462.762C229.629 454.702 251.003 450.731 256.96 462.762Z" fill="#FF7E6E"/>
<path d="M438.35 444.541C433.445 425.97 414.056 415.107 395.718 420.714L348.648 434.963C355.773 443.84 365.117 461.71 365.35 494.998C382.52 492.195 398.405 489.509 411.603 487.173C431.109 483.786 443.606 464.397 438.584 445.242L438.35 444.541Z" fill="#F52E2E"/>
<path opacity="0.67" d="M394.55 473.741C394.55 479.347 395.952 484.72 398.288 489.509C402.96 488.691 407.398 487.991 411.486 487.173C430.992 483.786 443.49 464.397 438.467 445.242L438.234 444.541C437.766 442.906 437.182 441.271 436.598 439.752C434.262 439.285 431.81 438.935 429.357 438.935C410.202 438.935 394.55 454.469 394.55 473.741Z" fill="#073044"/>
<path opacity="0.28" d="M238.038 476.661C238.038 476.661 267.589 475.376 330.077 464.163C380.768 455.17 395.602 429.24 399.456 419.663C398.171 419.896 396.886 420.247 395.718 420.597L256.96 462.645C251.003 450.615 229.746 454.703 226.358 462.645C223.088 470.587 221.686 485.304 207.554 491.261C193.421 497.218 190.501 511.234 190.501 511.234C190.501 511.234 205.101 501.89 214.211 499.904C223.438 497.919 238.038 476.661 238.038 476.661Z" fill="#4C2A29"/>
<path opacity="0.57" d="M207.554 491.261L186.763 487.406C167.958 484.37 155.227 466.616 158.381 447.811L158.498 447.11C162.002 426.67 182.792 413.939 202.648 420.246L241.893 432.744" stroke="white" stroke-width="1.1139" stroke-miterlimit="10"/>
<path d="M291.766 208.605C291.066 208.605 290.598 209.422 291.066 210.006C293.168 212.693 295.854 214.328 298.891 214.328C301.928 214.328 304.731 212.693 306.717 210.006C307.184 209.422 306.717 208.605 306.016 208.605H291.766Z" fill="white"/>
<path d="M300.877 197.158V204.4C300.877 204.4 299.242 203.466 296.906 204.4" stroke="#2F2F35" stroke-width="0.8212" stroke-miterlimit="10" stroke-linecap="round"/>
<path d="M306.834 171.112H305.082V182.442H306.834V171.112Z" fill="#FF7E6E"/>
<path d="M409.734 382.053L409.851 382.286C414.056 393.85 409.034 406.581 398.171 412.304L324.12 451.082L323.77 450.147C317.229 433.328 324.12 414.173 339.771 405.296L373.176 386.374L409.734 382.053Z" fill="#FF7E6E"/>
<path opacity="0.28" d="M394.083 405.88C394.083 408.566 394.784 411.136 395.952 413.472L398.171 412.304C406.698 407.866 411.603 398.872 411.253 389.645C410.902 389.645 410.669 389.645 410.318 389.645C401.442 389.645 394.083 396.886 394.083 405.88Z" fill="#4C2A29"/>
<path d="M373.176 386.491L394.083 374.578" stroke="#4C2A29" stroke-width="1.3362" stroke-miterlimit="10" stroke-linecap="round"/>
<path d="M188.165 382.053L188.048 382.286C183.843 393.85 188.866 406.581 199.728 412.304L273.779 451.082L274.13 450.147C280.67 433.328 273.779 414.173 258.128 405.296L224.723 386.374L188.165 382.053Z" fill="#FF7E6E"/>
<path opacity="0.28" d="M203.816 405.88C203.816 408.566 203.115 411.136 201.947 413.472L199.728 412.304C191.202 407.866 186.296 398.872 186.646 389.645C186.997 389.645 187.23 389.645 187.581 389.645C196.574 389.645 203.816 396.886 203.816 405.88Z" fill="#4C2A29"/>
<path d="M224.84 386.491L203.816 374.578" stroke="#4C2A29" stroke-width="1.3362" stroke-miterlimit="10" stroke-linecap="round"/>
<path d="M265.603 446.76C265.603 446.76 269.341 426.203 257.194 419.663" stroke="#4C2A29" stroke-width="1.3362" stroke-miterlimit="10" stroke-linecap="round"/>
<path d="M332.062 446.76C332.062 446.76 328.325 426.203 340.472 419.663" stroke="#4C2A29" stroke-width="1.3362" stroke-miterlimit="10" stroke-linecap="round"/>
<path d="M231.614 512.518C231.614 512.518 206.152 536.929 184.427 526.885C180.806 525.249 179.638 520.577 182.091 517.424C200.429 492.545 223.438 465.565 232.198 455.286C234.418 452.717 237.922 451.665 241.075 452.6L266.07 459.841L231.614 512.518Z" fill="#2F2F35"/>
<path d="M266.187 459.958L290.131 452.6L271.91 508.547L231.614 512.518L266.187 459.958Z" fill="#ECECEC"/>
<path opacity="0.28" d="M256.142 475.142C263.267 474.442 272.494 473.274 283.941 471.638L290.131 452.717L266.187 459.958L256.142 475.142Z" fill="#4C2A29"/>
<path d="M239.206 495.582L225.307 516.723C224.49 518.008 222.854 518.709 221.336 518.592H221.219C218.182 518.125 216.664 514.738 218.416 512.285L232.666 491.261C233.6 489.976 235.235 489.275 236.754 489.626H236.87C239.557 490.21 240.725 493.246 239.206 495.582Z" fill="#FFF6E7"/>
<path d="M296.906 373.059H211.875L232.782 447.811H296.906H361.029L382.053 373.059H296.906Z" fill="#AFAFAF"/>
<path d="M361.029 447.811H232.782V458.673H361.029V447.811Z" fill="#8B8B8C"/>
<path d="M297.022 427.021C308.505 427.021 317.813 422.262 317.813 416.392C317.813 410.522 308.505 405.763 297.022 405.763C285.54 405.763 276.232 410.522 276.232 416.392C276.232 422.262 285.54 427.021 297.022 427.021Z" fill="#5A5A63"/>
<path d="M382.053 368.154H211.875V373.059H382.053V368.154Z" fill="#5A5A63"/>
<path d="M252.755 450.965H239.907V455.286H252.755V450.965Z" fill="#5A5A63"/>
<path d="M271.326 450.965H258.478V455.286H271.326V450.965Z" fill="#5A5A63"/>
<path d="M361.029 453.301H283.006" stroke="#0F1201" stroke-miterlimit="10"/>
<path opacity="0.54" d="M211.875 373.059L232.899 447.811H278.568C305.666 416.392 322.134 373.059 322.134 373.059V368.154H211.992V373.059H211.875Z" fill="white"/>
<path opacity="0.57" d="M211.875 373.059H382.053" stroke="#0F1201" stroke-miterlimit="10"/>
<path opacity="0.87" d="M123.458 514.037C140.487 514.037 154.293 513.357 154.293 512.518C154.293 511.68 140.487 511 123.458 511C106.428 511 92.6224 511.68 92.6224 512.518C92.6224 513.357 106.428 514.037 123.458 514.037Z" fill="#515159"/>
<path d="M128.013 497.101L129.998 494.882L128.947 495.933L129.998 494.882C129.765 494.648 105.354 470.004 134.787 358.693L131.867 357.875C101.966 471.639 126.962 496.167 128.013 497.101Z" fill="#5A5A63"/>
<path d="M118.902 360.679C129.998 370.84 128.13 382.754 128.13 382.754C128.13 382.754 117.034 377.965 114.347 363.131C113.88 360.679 116.917 358.927 118.902 360.679Z" fill="#5A5A63"/>
<path d="M146.818 367.92C132.218 371.424 128.13 382.871 128.13 382.871C128.13 382.871 140.16 384.039 149.621 372.359C151.256 370.256 149.387 367.219 146.818 367.92Z" fill="#5A5A63"/>
<path d="M111.31 389.879C123.458 398.872 122.64 410.903 122.64 410.903C122.64 410.903 111.077 407.282 106.989 392.799C106.288 390.229 109.208 388.243 111.31 389.879Z" fill="#5A5A63"/>
<path d="M139.693 394.083C125.443 399.106 122.64 410.786 122.64 410.786C122.64 410.786 134.787 410.786 142.963 398.171C144.365 395.952 142.262 393.266 139.693 394.083Z" fill="#5A5A63"/>
<path d="M106.405 415.341C119.136 423.4 119.253 435.547 119.253 435.547C119.253 435.547 107.456 432.744 102.317 418.611C101.499 416.159 104.186 413.94 106.405 415.341Z" fill="#5A5A63"/>
<path d="M135.138 417.56C121.355 423.517 119.37 435.547 119.37 435.547C119.37 435.547 131.517 434.613 138.642 421.415C139.926 419.079 137.59 416.509 135.138 417.56Z" fill="#5A5A63"/>
<path d="M142.73 338.487C142.963 353.554 132.918 360.328 132.918 360.328C132.918 360.328 128.714 348.999 137.824 336.851C139.459 334.749 142.73 335.8 142.73 338.487Z" fill="#5A5A63"/>
<path d="M138.525 447.812H106.171V511.818H138.525V447.812Z" fill="#F52E2E"/>
<path opacity="0.67" d="M138.525 447.812H125.56V511.818H138.525V447.812Z" fill="#A87D1D"/>
<path d="M152.658 142.73L140.978 145.65C139.342 146.117 137.59 145.066 137.123 143.314L135.955 138.758L153.709 134.32L154.877 138.875C155.344 140.627 154.41 142.262 152.658 142.73Z" fill="#A87D1D"/>
<path d="M195.874 128.83L95.3088 153.826C93.5568 154.293 91.8048 153.242 91.3376 151.49L74.8688 84.7969C74.4016 83.0449 75.4528 81.2929 77.2048 80.8257L177.77 55.8305C179.522 55.3633 181.274 56.4145 181.741 58.1665L198.326 124.859C198.677 126.611 197.626 128.363 195.874 128.83Z" fill="#A87D1D"/>
<path d="M192.954 117.267L190.15 125.326L100.915 147.518L92.9728 142.146L76.6208 76.1535L176.485 51.2751L192.954 117.267Z" fill="#F52E2E"/>
<path d="M125.237 63.9941L76.6134 76.085L93.0445 142.164L141.669 130.073L125.237 63.9941Z" fill="white"/>
<path d="M122.329 69.6856L82.3194 79.6345L82.8831 81.9014L122.893 71.9525L122.329 69.6856Z" fill="#AFAFAF"/>
<path d="M124.084 77.0533L84.0739 87.0063L84.6378 89.2732L124.648 79.3202L124.084 77.0533Z" fill="#AFAFAF"/>
<path d="M125.936 84.4173L85.9256 94.3662L86.4893 96.6331L126.499 86.6842L125.936 84.4173Z" fill="#AFAFAF"/>
<path d="M127.795 91.7689L87.7854 101.718L88.349 103.985L128.359 94.0357L127.795 91.7689Z" fill="#AFAFAF"/>
<path d="M129.693 99.2213L89.6835 109.174L90.2474 111.441L130.257 101.488L129.693 99.2213Z" fill="#AFAFAF"/>
<path d="M131.43 106.614L91.4196 116.563L91.9833 118.83L131.993 108.881L131.43 106.614Z" fill="#AFAFAF"/>
<path d="M133.289 113.966L93.2795 123.915L93.8432 126.181L133.853 116.233L133.289 113.966Z" fill="#AFAFAF"/>
<path d="M135.161 121.304L95.1515 131.257L95.7154 133.524L135.725 123.571L135.161 121.304Z" fill="#AFAFAF"/>
<path d="M176.519 51.2384L127.895 63.3342L144.333 129.413L192.957 117.317L176.519 51.2384Z" fill="white"/>
<path d="M173.125 56.9574L133.115 66.9104L133.679 69.1773L173.689 59.2242L173.125 56.9574Z" fill="#AFAFAF"/>
<path d="M175.007 64.4395L134.997 74.3884L135.56 76.6553L175.57 66.7064L175.007 64.4395Z" fill="#AFAFAF"/>
<path d="M176.866 71.7911L136.856 81.74L137.42 84.0068L177.43 74.0579L176.866 71.7911Z" fill="#AFAFAF"/>
<path d="M178.621 79.1537L138.611 89.1067L139.175 91.3735L179.185 81.4205L178.621 79.1537Z" fill="#AFAFAF"/>
<path d="M180.472 86.523L140.462 96.4719L141.026 98.7388L181.036 88.7899L180.472 86.523Z" fill="#AFAFAF"/>
<path d="M182.36 93.9879L142.35 103.937L142.914 106.204L182.924 96.2547L182.36 93.9879Z" fill="#AFAFAF"/>
<path d="M184.231 101.322L144.221 111.275L144.784 113.542L184.794 103.588L184.231 101.322Z" fill="#AFAFAF"/>
<path d="M185.967 108.72L145.957 118.668L146.52 120.935L186.53 110.986L185.967 108.72Z" fill="#AFAFAF"/>
<path d="M149.621 138.875L141.912 140.744C140.277 141.211 138.525 140.16 138.058 138.408L137.357 135.605L151.139 132.218L151.84 135.021C152.307 136.656 151.373 138.408 149.621 138.875Z" fill="#F52E2E"/>
<path d="M320.616 43.9168C316.645 40.0624 311.622 37.4928 306.366 35.7408C306.366 35.7408 306.249 35.7408 306.133 35.624C301.461 34.3392 296.438 34.3392 291.766 35.624C291.649 35.624 291.533 35.624 291.533 35.7408C286.393 37.4928 281.254 40.0624 277.283 43.9168C265.369 55.2464 267.355 75.6864 278.918 86.5488C282.189 89.5856 283.59 93.5568 284.641 97.8784C284.992 99.1632 286.627 112.712 286.043 112.712C291.883 112.712 299.008 112.712 299.008 112.712C299.008 112.712 306.133 112.712 311.973 112.712C311.389 112.712 313.141 99.1632 313.374 97.8784C314.425 93.5568 315.827 89.5856 319.097 86.5488C330.544 75.6864 332.413 55.1296 320.616 43.9168Z" fill="#F52E2E"/>
<path opacity="0.52" d="M294.219 97.7617C293.168 93.4401 291.766 89.4689 288.496 86.4321C276.933 75.5697 274.947 55.1297 286.861 43.8001C290.832 39.9457 295.854 37.3761 301.11 35.6241C301.11 35.6241 301.227 35.6241 301.344 35.5073C302.162 35.2737 302.862 35.1569 303.68 35.0401C299.709 34.3393 295.621 34.4561 291.65 35.5073C291.533 35.5073 291.416 35.5073 291.416 35.6241C286.277 37.3761 281.138 39.9457 277.166 43.8001C265.253 55.1297 267.238 75.5697 278.802 86.4321C282.072 89.4689 283.474 93.4401 284.525 97.7617C284.875 99.0465 286.51 112.595 285.926 112.595C289.314 112.595 293.051 112.595 295.621 112.595C296.322 112.712 294.57 99.0465 294.219 97.7617Z" fill="#FFF6E7"/>
<path d="M298.891 112.712V81.0593L304.498 77.7889C306.366 76.7377 306.016 73.9345 303.914 73.4673L293.752 70.7809C292 70.3137 291.883 67.9777 293.402 67.1601L298.891 64.7073V53.9617" stroke="#FEFEFE" stroke-width="2.2387" stroke-miterlimit="10" stroke-linecap="round"/>
<path d="M314.426 117.034C314.426 117.968 313.608 118.786 312.674 118.786H284.174C283.24 118.786 282.422 117.968 282.422 117.034C282.422 116.099 283.24 115.282 284.174 115.282H312.674C313.608 115.282 314.426 116.099 314.426 117.034Z" fill="#2F2F35"/>
<path d="M314.426 122.29C314.426 123.224 313.608 124.042 312.674 124.042H284.174C283.24 124.042 282.422 123.224 282.422 122.29C282.422 121.355 283.24 120.538 284.174 120.538H312.674C313.608 120.538 314.426 121.355 314.426 122.29Z" fill="#2F2F35"/>
<path d="M314.426 127.546C314.426 128.48 313.608 129.298 312.674 129.298H284.174C283.24 129.298 282.422 128.48 282.422 127.546C282.422 126.611 283.24 125.794 284.174 125.794H312.674C313.608 125.794 314.426 126.495 314.426 127.546Z" fill="#2F2F35"/>
<path d="M298.424 141.445C304.03 141.445 308.586 136.89 308.586 131.283H288.262C288.262 136.89 292.818 141.445 298.424 141.445Z" fill="#2F2F35"/>
<path d="M418.962 148.102V139.926H415.341C414.64 136.072 413.122 132.451 410.786 129.414L413.706 126.494L407.866 120.654L404.946 123.574C401.909 121.472 398.405 120.07 394.55 119.603V115.281H386.374V119.72C382.754 120.421 379.366 121.939 376.446 124.041L373.526 121.121L367.686 126.961L370.606 129.881C368.504 132.918 366.986 136.539 366.402 140.277H362.314V148.453H366.518C367.219 152.19 368.738 155.694 370.84 158.614L367.686 161.768L373.526 167.608L376.797 164.337C379.717 166.44 383.221 167.841 386.958 168.425V172.864H395.134V168.425C398.872 167.841 402.259 166.323 405.296 164.337L407.982 167.024L413.822 161.184L411.136 158.497C413.355 155.344 414.99 151.723 415.574 147.752H418.962V148.102ZM390.93 158.147C383.221 158.147 377.03 151.957 377.03 144.248C377.03 136.539 383.221 130.349 390.93 130.349C398.638 130.349 404.829 136.539 404.829 144.248C404.829 151.957 398.638 158.147 390.93 158.147Z" fill="#666666"/>
<path d="M451.549 179.171V174.499H449.446C449.096 172.28 448.162 170.178 446.877 168.426L448.512 166.79L445.125 163.403L443.373 165.155C441.621 163.987 439.518 163.17 437.416 162.819V160.366H432.744V162.936C430.642 163.286 428.656 164.221 427.021 165.389L425.386 163.754L421.998 167.141L423.634 168.776C422.349 170.528 421.531 172.63 421.181 174.85H418.845V179.522H421.298C421.648 181.741 422.582 183.726 423.75 185.362L421.882 187.23L425.269 190.618L427.138 188.749C428.89 189.917 430.875 190.734 432.978 191.085V193.654H437.65V191.085C439.752 190.734 441.738 189.917 443.49 188.749L445.008 190.267L448.395 186.88L446.877 185.362C448.162 183.61 449.096 181.507 449.446 179.171H451.549ZM435.43 185.011C430.992 185.011 427.371 181.39 427.371 176.952C427.371 172.514 430.992 168.893 435.43 168.893C439.869 168.893 443.49 172.514 443.49 176.952C443.373 181.39 439.869 185.011 435.43 185.011Z" fill="#9E9E9E"/>
<path d="M525.95 117.968V101.149H518.592C517.19 93.2064 513.92 85.848 509.248 79.5408L515.088 73.7008L503.174 61.904L497.101 67.9776C490.794 63.656 483.552 60.8528 475.726 59.6848V50.9248H458.907V60.0352C451.432 61.4368 444.541 64.4736 438.467 68.7952L432.51 62.8384L420.714 74.752L426.787 80.8256C422.349 87.1328 419.429 94.3744 418.144 102.317H409.851V119.136H418.378C419.779 126.845 422.816 133.97 427.254 140.043L420.714 146.584L432.627 158.498L439.285 151.84C445.358 156.162 452.483 159.082 460.075 160.366V169.477H476.894V160.366C484.486 159.082 491.611 156.162 497.685 151.957L503.291 157.563L515.205 145.65L509.715 140.16C514.387 133.736 517.541 126.261 518.826 118.085H525.95V117.968ZM468.368 138.642C452.6 138.642 439.752 125.794 439.752 110.026C439.752 94.2576 452.6 81.4096 468.368 81.4096C484.136 81.4096 496.984 94.2576 496.984 110.026C496.984 125.91 484.253 138.642 468.368 138.642Z" fill="#8B8B8C"/>
<path d="M467.901 126.962C477.19 126.962 484.72 119.431 484.72 110.142C484.72 100.853 477.19 93.3232 467.901 93.3232C458.612 93.3232 451.082 100.853 451.082 110.142C451.082 119.431 458.612 126.962 467.901 126.962Z" fill="#666666"/>
<path d="M140.978 195.991C104.886 198.21 76.8544 219.818 78.3728 244.229C79.8912 268.64 110.259 286.744 146.35 284.525C146.35 284.525 146.35 284.525 146.467 284.525C149.971 284.291 152.541 280.904 151.606 277.4C151.139 275.765 150.906 274.013 150.906 272.144C150.672 260.464 159.782 250.419 171.346 249.368C179.755 248.551 187.464 252.522 191.902 259.063C194.122 262.216 198.794 262.45 201.13 259.413C206.502 252.405 209.422 244.463 208.955 236.17C207.437 211.875 177.069 193.771 140.978 195.991Z" fill="#5A5A63"/>
<path d="M140.744 192.019C104.653 194.239 76.6208 215.847 78.1392 240.258C79.6576 264.669 110.026 282.773 146.117 280.554C146.117 280.554 146.117 280.554 146.234 280.554C149.738 280.32 152.307 276.933 151.373 273.429C150.906 271.794 150.672 270.042 150.672 268.173C150.438 256.493 159.549 246.448 171.112 245.397C179.522 244.579 187.23 248.551 191.669 255.091C193.888 258.245 198.56 258.479 200.896 255.442C206.269 248.434 209.189 240.491 208.722 232.199C207.203 207.904 176.835 189.8 140.744 192.019Z" fill="#8B8B8C"/>
<path d="M128.013 261.398C128.246 265.72 124.976 269.458 120.654 269.691C116.333 269.925 112.595 266.654 112.362 262.333C112.128 258.011 115.398 254.274 119.72 254.04C124.042 253.69 127.779 257.077 128.013 261.398Z" fill="#F52E2E"/>
<path d="M106.522 246.448C106.755 250.77 103.485 254.507 99.1632 254.741C94.8416 254.974 91.104 251.704 90.8704 247.382C90.6368 243.061 93.9072 239.323 98.2288 239.09C102.55 238.856 106.288 242.126 106.522 246.448Z" fill="#F52E2E"/>
<path d="M112.829 220.402C113.062 224.723 109.792 228.461 105.47 228.694C101.149 228.928 97.4112 225.658 97.1776 221.336C96.944 217.014 100.214 213.277 104.536 213.043C108.858 212.693 112.595 216.08 112.829 220.402Z" fill="#F52E2E"/>
<path d="M139.459 206.269C139.693 210.59 136.422 214.328 132.101 214.562C127.779 214.795 124.042 211.525 123.808 207.203C123.574 202.882 126.845 199.144 131.166 198.91C135.488 198.56 139.226 201.947 139.459 206.269Z" fill="#F52E2E"/>
<path d="M169.477 206.619C169.71 210.941 166.44 214.679 162.118 214.912C157.797 215.146 154.059 211.875 153.826 207.554C153.592 203.232 156.862 199.495 161.184 199.261C165.506 199.027 169.243 202.298 169.477 206.619Z" fill="#F52E2E"/>
<path d="M194.822 220.869C195.056 225.191 191.786 228.928 187.464 229.162C183.142 229.395 179.405 226.125 179.171 221.803C178.938 217.482 182.208 213.744 186.53 213.511C190.734 213.277 194.472 216.547 194.822 220.869Z" fill="#F52E2E"/>
<path opacity="0.68" d="M175.901 196.691L168.426 212.226C167.491 212.226 166.557 212.693 166.09 213.744C165.622 214.912 166.206 216.314 167.374 216.898L168.075 217.131C167.958 217.131 167.258 217.015 165.739 219.234C165.622 219.351 165.506 219.467 165.506 219.701C165.389 219.818 165.272 219.935 165.272 220.168V220.285C165.155 220.402 165.038 220.635 165.038 220.752C165.038 220.752 165.038 220.869 164.922 220.869C164.805 220.986 164.688 221.219 164.688 221.336C164.688 221.453 164.571 221.453 164.571 221.57C164.454 221.687 164.338 221.92 164.338 222.037C164.338 222.154 164.221 222.154 164.221 222.271C164.104 222.387 164.104 222.621 163.987 222.738C163.987 222.855 163.87 222.971 163.87 223.088C163.754 223.205 163.754 223.439 163.637 223.672C163.52 223.789 163.52 223.906 163.403 224.023C163.286 224.256 163.286 224.373 163.17 224.607C163.053 224.723 163.053 224.957 162.936 225.074C162.819 225.307 162.702 225.424 162.702 225.658C162.586 225.775 162.586 226.008 162.469 226.242C162.352 226.475 162.352 226.592 162.235 226.826C162.118 227.059 162.118 227.176 162.002 227.41C161.885 227.643 161.885 227.76 161.768 227.994C161.651 228.227 161.534 228.461 161.534 228.695C161.418 228.928 161.418 229.162 161.301 229.279C161.184 229.512 161.067 229.863 160.95 230.096C160.834 230.33 160.834 230.563 160.717 230.797C160.6 231.147 160.483 231.381 160.366 231.731C160.25 231.965 160.25 232.082 160.133 232.315C160.016 232.666 159.899 233.133 159.666 233.483C159.549 233.6 159.549 233.834 159.432 233.951C159.198 234.535 158.965 235.119 158.731 235.703C158.147 237.338 157.446 239.323 156.629 241.426C156.512 241.659 156.395 241.893 156.395 242.127C156.278 242.477 156.162 242.827 156.045 243.178C155.928 243.411 155.811 243.762 155.694 243.995C155.578 244.463 155.344 244.93 155.227 245.397C155.11 245.631 155.11 245.747 154.994 245.981C154.877 246.448 154.643 246.915 154.526 247.383C154.41 247.616 154.41 247.85 154.293 248.083C154.176 248.551 153.942 249.018 153.826 249.368C153.709 249.602 153.592 249.952 153.592 250.186C153.358 250.653 153.242 251.237 153.008 251.704C152.891 251.938 152.891 252.055 152.774 252.288C152.541 252.872 152.424 253.339 152.19 253.923C152.074 254.157 152.074 254.391 151.957 254.624C151.723 255.091 151.606 255.675 151.373 256.143C151.256 256.376 151.139 256.727 151.139 256.96C150.906 257.544 150.789 258.011 150.555 258.595C150.438 258.829 150.438 259.063 150.322 259.296C150.088 259.88 149.971 260.347 149.738 260.931C149.621 261.165 149.504 261.515 149.504 261.749C149.387 262.216 149.154 262.8 149.037 263.267C148.92 263.618 148.803 263.968 148.686 264.319C148.57 264.786 148.336 265.136 148.219 265.603C148.102 266.071 147.986 266.421 147.752 266.888C147.635 267.355 147.402 267.823 147.285 268.29C147.168 268.523 147.168 268.757 147.051 268.991C145.766 272.845 144.365 276.699 143.08 280.437C144.248 280.437 145.416 280.32 146.584 280.32C146.584 280.32 146.584 280.32 146.701 280.32C150.205 280.087 152.774 276.699 151.84 273.195C151.373 271.56 151.139 269.808 151.139 267.939C151.022 257.778 157.914 248.784 167.374 245.981C168.426 243.762 169.36 241.659 170.178 239.907C178.587 221.57 176.485 219.935 176.251 219.818L176.952 220.051C178.12 220.519 179.522 219.935 180.106 218.767C180.573 217.599 180.106 216.314 179.054 215.73L184.661 199.728C181.39 198.911 178.704 197.743 175.901 196.691ZM168.075 217.131L168.309 217.248L168.075 217.131Z" fill="#2F2F35"/>
<path opacity="0.42" d="M111.544 219.117C111.661 220.986 110.259 222.504 108.507 222.621C106.638 222.738 105.12 221.336 105.003 219.584C104.886 217.715 106.288 216.197 108.04 216.08C109.792 215.963 111.427 217.365 111.544 219.117Z" fill="white"/>
<path opacity="0.42" d="M138.174 205.335C138.291 207.203 136.89 208.722 135.138 208.839C133.269 208.955 131.75 207.554 131.634 205.802C131.517 203.933 132.918 202.415 134.67 202.298C136.422 202.181 138.058 203.466 138.174 205.335Z" fill="white"/>
<path opacity="0.42" d="M166.323 204.634C166.44 206.503 165.038 208.021 163.286 208.138C161.418 208.255 159.899 206.853 159.782 205.101C159.666 203.232 161.067 201.714 162.819 201.597C164.688 201.48 166.206 202.765 166.323 204.634Z" fill="white"/>
<path opacity="0.42" d="M103.251 244.112C103.368 245.981 101.966 247.499 100.214 247.616C98.3456 247.733 96.8272 246.331 96.7104 244.579C96.5936 242.827 97.9952 241.192 99.7472 241.075C101.499 240.959 103.134 242.36 103.251 244.112Z" fill="white"/>
<path opacity="0.42" d="M126.611 259.063C126.728 260.931 125.326 262.45 123.574 262.567C121.706 262.683 120.187 261.282 120.07 259.53C119.954 257.661 121.355 256.143 123.107 256.026C124.859 255.909 126.494 257.311 126.611 259.063Z" fill="white"/>
<path d="M204.634 192.019C204.634 192.019 215.379 186.179 216.08 177.069C216.08 171.696 213.744 167.258 213.744 167.258L212.226 172.747C212.226 172.747 211.408 164.104 205.218 159.899C199.027 155.695 200.546 156.863 200.546 156.863C200.546 156.863 205.802 163.754 199.962 175.2C194.122 186.647 201.48 190.618 201.48 190.618L204.634 192.019Z" fill="#F52E2E"/>
<path d="M204.05 188.282C204.05 188.282 202.064 178.354 206.502 172.981C200.779 180.339 199.494 186.179 201.013 190.968C204.05 188.282 204.05 188.282 204.05 188.282Z" fill="#A87D1D"/>
<path d="M198.794 190.267C199.728 188.399 202.064 187.464 203.933 188.282C205.918 189.099 206.97 191.319 206.269 193.304L199.144 215.029L193.771 212.81L188.398 210.591L198.794 190.267Z" fill="white"/>
<path d="M187.931 215.613L196.925 219.234C198.093 219.701 199.494 219.117 200.078 217.949C200.546 216.781 199.962 215.38 198.794 214.796L189.8 211.175C188.632 210.708 187.23 211.292 186.646 212.46C186.062 213.744 186.646 215.146 187.931 215.613Z" fill="#CCCCCC"/>
<path d="M188.632 215.847L192.37 217.365L196.107 218.883C196.107 218.883 199.027 219.584 190.15 238.973C183.61 253.456 166.557 289.664 156.862 308.936C155.928 310.688 153.242 309.637 153.826 307.651C160.366 286.978 173.448 249.251 178.821 234.301C186.062 214.328 188.632 215.847 188.632 215.847Z" fill="#2F2F35"/>
<path d="M168.426 285.459C164.221 294.219 160.133 302.629 156.862 309.053C155.928 310.805 153.242 309.754 153.826 307.768C156.045 300.877 158.965 292 162.118 282.773L168.426 285.459Z" fill="white"/>
<path opacity="0.75" d="M167.141 268.056C181.04 250.887 186.296 218.066 186.296 217.949C184.778 220.168 182.325 224.84 178.938 234.535C176.251 241.776 171.696 254.507 167.141 268.056Z" fill="white"/>
<path d="M436.131 227.76L438.701 232.666L444.19 233.483L440.219 237.338L441.154 242.827L436.131 240.258L431.226 242.827L432.16 237.338L428.189 233.483L433.678 232.666L436.131 227.76Z" fill="#9E9E9E"/>
<path d="M507.029 220.752L510.533 227.76L518.242 228.811L512.635 234.301L513.92 241.893L507.029 238.272L500.254 241.893L501.539 234.301L495.933 228.811L503.642 227.76L507.029 220.752Z" fill="#666666"/>
<path d="M485.538 325.171L487.523 329.026L491.728 329.61L488.691 332.647L489.392 336.968L485.538 334.983L481.683 336.968L482.501 332.647L479.347 329.61L483.669 329.026L485.538 325.171Z" fill="#9E9E9E"/>
<path d="M417.093 298.775L420.48 305.783L428.189 306.834L422.699 312.323L423.984 319.915L417.093 316.295L410.202 319.915L411.486 312.323L405.997 306.834L413.706 305.783L417.093 298.775Z" fill="#666666"/>
<path d="M482.983 315.192C502.622 307.317 512.158 285.012 504.283 265.373C496.408 245.734 474.104 236.198 454.464 244.073C434.825 251.948 425.289 274.252 433.164 293.891C441.039 313.531 463.344 323.067 482.983 315.192Z" fill="#F52E2E"/>
<g opacity="0.67">
<path opacity="0.67" d="M458.44 316.645C471.989 320.383 485.888 316.411 495.349 307.301C488.925 309.053 482.034 309.053 475.142 307.184C454.702 301.461 442.789 280.32 448.512 259.997C450.381 253.106 454.118 247.266 458.907 242.711C446.293 246.098 435.664 255.909 431.81 269.458C426.086 289.781 438 310.922 458.44 316.645Z" fill="#F52E2E"/>
</g>
<path opacity="0.52" d="M478.997 242.711C477.128 242.127 475.142 241.776 473.274 241.543C472.222 245.164 471.755 248.901 471.755 252.756C471.755 272.728 485.771 289.431 504.459 293.636C504.926 292.468 505.394 291.183 505.744 289.898C511.35 269.575 499.437 248.434 478.997 242.711Z" fill="#FFF6E7"/>
<path d="M430.525 276.466C415.691 270.626 406.347 265.37 407.165 262.683C408.45 258.011 437.066 261.983 470.938 271.443C504.926 280.904 531.323 292.351 530.038 297.023C529.221 299.826 518.709 299.475 503.058 296.789" stroke="#666666" stroke-width="2" stroke-miterlimit="10"/>
</svg>
