<svg width="19" height="19" viewBox="0 0 19 19" fill="none" xmlns="http://www.w3.org/2000/svg">
<path fill-rule="evenodd" clip-rule="evenodd" d="M2.84028 7.35617C4.6276 11.248 7.80811 14.3422 11.7618 16.0188L11.7743 16.0241L12.5381 16.3645C13.5108 16.7979 14.654 16.4901 15.2776 15.627L16.552 13.8633C16.6298 13.7556 16.6097 13.6058 16.5063 13.5223L14.2816 11.7275C14.171 11.6383 14.0083 11.6591 13.9237 11.7732L13.0579 12.9416C12.8476 13.2254 12.4678 13.324 12.1461 13.1784C9.18971 11.8404 6.81397 9.46472 5.47604 6.50833C5.33042 6.18656 5.42902 5.80681 5.71277 5.59653L6.88115 4.73067C6.99532 4.64606 7.01611 4.48344 6.92687 4.37284L5.13183 2.1478C5.0484 2.04438 4.89866 2.0243 4.79093 2.10207L3.01763 3.38223C2.14884 4.00942 1.84289 5.16226 2.28635 6.13771L2.83969 7.35487C2.83989 7.35531 2.84009 7.35574 2.84028 7.35617ZM11.1699 17.3971C6.87392 15.5735 3.41855 12.2105 1.47651 7.98072L1.47534 7.97822L0.920843 6.7585C0.181743 5.13275 0.691663 3.21134 2.13965 2.16603L3.91294 0.885868C4.66706 0.341458 5.71529 0.482068 6.29928 1.20596L8.09431 3.43101C8.71891 4.20518 8.57341 5.34357 7.77421 5.93581L7.10471 6.43197C8.23571 8.62632 10.028 10.4187 12.2224 11.5496L12.7186 10.8801C13.3108 10.081 14.4492 9.93552 15.2234 10.5601L17.4481 12.3548C18.1722 12.939 18.3127 13.9877 17.7678 14.7418L16.4934 16.5055C15.4541 17.944 13.5487 18.457 11.9277 17.7347L11.1699 17.3971Z" fill="white"/>
</svg>
