<svg width="136" height="136" viewBox="0 0 136 136" fill="none" xmlns="http://www.w3.org/2000/svg">
<g clip-path="url(#clip0_6_94)">
<path opacity="0.3" d="M124.667 68C124.667 36.7039 99.2961 11.3334 68 11.3334C36.7039 11.3334 11.3333 36.7039 11.3333 68C11.3333 99.2962 36.7039 124.667 68 124.667C99.2961 124.667 124.667 99.2962 124.667 68Z" fill="#00AB9A"/>
<path fill-rule="evenodd" clip-rule="evenodd" d="M34.9523 82.4766C33.2163 79.8726 33.92 76.3543 36.524 74.6183C39.128 72.8823 42.6462 73.586 44.3822 76.19C50.9388 86.0248 58.6751 90.6666 68.0006 90.6666C77.3261 90.6666 85.0625 86.0248 91.619 76.19C93.355 73.586 96.8732 72.8823 99.4772 74.6183C102.081 76.3543 102.785 79.8726 101.049 82.4766C92.4943 95.3085 81.3418 102 68.0006 102C54.6594 102 43.5069 95.3085 34.9523 82.4766Z" fill="#055B53"/>
</g>
<defs>
<clipPath id="clip0_6_94">
<rect width="136" height="136" fill="white"/>
</clipPath>
</defs>
</svg>
