<svg width="194" height="141" viewBox="0 0 194 141" fill="none" xmlns="http://www.w3.org/2000/svg">
<g clip-path="url(#clip0_4_75)">
<path opacity="0.5" d="M79.1554 94.5381L64.8445 87.3827C73.4479 70.176 94.371 63.2016 111.578 71.805C118.319 75.1755 123.785 80.6416 127.155 87.3827L112.845 94.5381C111.022 90.8934 108.067 87.9381 104.422 86.1158C95.1192 81.4643 83.8069 85.2351 79.1554 94.5381ZM175.247 23.954C179.515 25.0976 182.047 29.4843 180.904 33.752L167.726 82.9315C166.583 87.1993 162.196 89.7319 157.928 88.5884C153.66 87.4449 151.128 83.0582 152.271 78.7904L165.449 29.6109C166.592 25.3431 170.979 22.8105 175.247 23.954ZM16.753 23.954C21.0208 22.8105 25.4075 25.3431 26.551 29.6109L38.9743 75.9753C40.1178 80.243 37.5852 84.6297 33.3174 85.7733C29.0497 86.9168 24.663 84.3841 23.5195 80.1164L11.0962 33.752C9.95264 29.4843 12.4853 25.0976 16.753 23.954Z" fill="#5FC9ED"/>
<path fill-rule="evenodd" clip-rule="evenodd" d="M52 119C32.1177 119 16 102.882 16 83C16 63.1177 32.1177 47 52 47C71.8823 47 88 63.1177 88 83C88 102.882 71.8823 119 52 119ZM140 119C120.118 119 104 102.882 104 83C104 63.1177 120.118 47 140 47C159.882 47 176 63.1177 176 83C176 102.882 159.882 119 140 119Z" fill="#819DA7"/>
</g>
<defs>
<clipPath id="clip0_4_75">
<rect width="194" height="141" fill="white"/>
</clipPath>
</defs>
</svg>
